<?xml version="1.0" encoding="UTF-8"?>
<!-- Generated by Pixelmator Pro 3.7.1 -->
<svg width="2553" height="649" viewBox="0 0 2553 649" xmlns="http://www.w3.org/2000/svg">
    <g id="Frame-5">
        <g id="Group">
            <g id="-6">
                <g id="g1">
                    <g id="g2">
                        <g id="Rectangle"/>
                        <g id="g3">
                            <g id="g4">
                                <g id="g5">
                                    <path id="Shape" fill="#000000" stroke="none" d="M 268.127899 301.408295 C 283.127197 301.408295 294.082916 298.059479 300.995056 291.327332 C 307.907196 284.6297 311.363251 273.996368 311.363251 259.461853 C 311.363251 244.996368 307.527008 234.915436 299.854553 229.184479 C 291.836487 223.211853 279.671143 220.208282 263.393066 220.208282 L 209.409348 220.208282 L 209.409348 216.238037 L 213.349274 216.238037 L 213.349274 305.37854 L 209.409348 305.37854 L 209.409348 301.408295 L 268.127899 301.408295 Z M 268.127899 309.31424 L 205.434875 309.31424 L 205.434875 212.302338 L 263.393066 212.302338 C 281.433716 212.302338 295.154297 215.823761 304.589355 222.866608 C 314.370026 230.151154 319.277649 242.372559 319.277649 259.461853 C 319.277649 276.240417 315.026672 288.738037 306.52475 296.989227 C 298.057404 305.205902 285.269958 309.31424 268.127899 309.31424 Z M 209.409348 470.678528 L 142.188904 470.678528 L 142.188904 160.205902 L 284.405945 160.205902 C 314.370026 160.205902 338.216858 169.251129 355.946472 187.341614 C 373.676086 205.397583 382.523621 229.978516 382.523621 261.118988 C 382.523621 288.047577 373.883453 311.454712 356.637695 331.409485 C 339.219116 351.536865 314.300903 361.617798 281.917572 361.617798 L 209.409348 361.617798 L 209.409348 357.647583 L 213.349274 357.647583 L 213.349274 470.678528 L 209.409348 470.678528 Z M 209.409348 462.807098 L 209.409348 466.742828 L 205.434875 466.742828 L 205.434875 353.711853 L 281.917572 353.711853 C 311.916229 353.711853 334.795349 344.563049 350.624146 326.265442 C 366.625702 307.795197 374.609222 286.079712 374.609222 261.118988 C 374.609222 232.153534 366.487488 209.402313 350.278534 192.865417 C 334.104156 176.363037 312.123566 168.111847 284.405945 168.111847 L 146.128815 168.111847 L 146.128815 164.176147 L 150.103287 164.176147 L 150.103287 466.742828 L 146.128815 466.742828 L 146.128815 462.807098 L 209.409348 462.807098 Z"/>
                                </g>
                                <g id="g6">
                                    <path id="path1" fill="#000000" stroke="none" d="M 571.491821 332.68689 C 570.316772 319.326172 565.996704 308.658295 558.531616 300.648773 C 551.204773 292.846405 541.666016 288.945221 529.880798 288.945221 C 516.955139 288.945221 506.89798 292.50116 499.640259 299.647583 C 492.313416 306.897583 487.682281 317.94519 485.815979 332.824982 L 481.876099 332.341644 L 481.876099 328.371399 L 575.431763 328.371399 L 575.431763 332.341644 L 571.491821 332.68689 Z M 579.751831 336.277344 L 477.383209 336.277344 L 477.970734 331.823792 C 480.044373 315.148773 485.435822 302.547577 494.075989 294.020203 C 502.854401 285.354736 514.812378 281.039246 529.880798 281.039246 C 543.947021 281.039246 555.421143 285.769012 564.303223 295.263062 C 573.047058 304.584503 578.05835 316.805908 579.371643 331.996399 L 579.751831 336.277344 Z M 637.537231 402.217834 C 630.417725 426.280945 617.595764 444.716644 599.105774 457.524963 C 580.719543 470.298798 559.361023 476.651184 535.030334 476.651184 C 496.979095 476.651184 467.77533 466.052368 447.488251 444.889282 C 427.270264 423.726166 417.144012 394.588074 417.144012 357.44046 C 417.144012 320.258301 426.613617 290.222595 445.552856 267.333313 C 464.699432 244.236877 493.07373 232.671387 530.710266 232.671387 C 564.579712 232.671387 591.295105 243.477356 610.925537 265.054749 C 630.417725 286.528534 640.163818 318.221405 640.163818 360.133301 L 640.163818 374.56424 L 480.217163 374.56424 L 480.217163 370.62854 L 484.19165 370.317841 C 485.470398 387.579742 490.447113 400.422607 499.08728 408.846405 C 507.658325 417.235718 519.443481 421.413086 534.408264 421.413086 C 543.255798 421.413086 550.859131 419.410706 557.218262 415.336884 C 563.404663 411.435699 567.344543 406.326172 569.141724 400.008301 L 569.971191 397.142822 L 639.023315 397.142822 L 637.537231 402.217834 Z M 629.933899 399.973785 L 633.735535 401.078552 L 633.735535 405.048767 L 572.943359 405.048767 L 572.943359 401.078552 L 576.745056 402.148804 C 574.429504 410.399963 569.34906 417.028564 561.469238 422 C 553.83136 426.902344 544.811035 429.319031 534.408264 429.319031 C 517.266174 429.319031 503.649292 424.382141 493.52301 414.508301 C 483.500427 404.703552 477.72879 390.169037 476.277252 370.904724 L 475.966217 366.658295 L 636.223938 366.658295 L 636.223938 370.62854 L 632.249451 370.62854 L 632.249451 360.133301 C 632.249451 320.258301 623.19458 290.326172 605.050232 270.371399 C 587.009583 250.520203 562.229553 240.577362 530.710266 240.577362 C 495.562103 240.577362 469.192322 251.176147 451.635529 272.373779 C 433.905914 293.81308 425.05838 322.157104 425.05838 357.44046 C 425.05838 392.482117 434.424316 419.790466 453.225311 439.399963 C 471.957184 458.974976 499.225525 468.745209 535.030334 468.745209 C 557.702148 468.745209 577.574524 462.841644 594.612915 451.034485 C 611.547607 439.296387 623.332825 422.276184 629.933899 399.973785 Z"/>
                                </g>
                                <g id="g7">
                                    <path id="path2" fill="#000000" stroke="none" d="M 690.088684 238.43689 L 750.708069 238.43689 L 750.708069 281.280914 L 746.733582 281.280914 L 746.733582 277.345215 L 747.562988 277.345215 L 747.562988 281.280914 L 743.968689 279.623779 C 751.122742 264.364258 759.832031 252.764252 770.062012 244.823792 C 780.533875 236.710693 793.563232 232.671387 809.184631 232.671387 C 813.228271 232.671387 817.202698 232.947601 821.073486 233.534485 L 824.460449 234.052338 L 824.460449 302.167816 L 819.725647 301.235687 C 817.237305 300.717834 811.880371 300.476166 803.620361 300.476166 C 786.305481 300.476166 773.552612 304.515442 765.396301 312.594025 C 757.23999 320.672577 753.161865 333.170227 753.161865 350.052368 L 753.161865 470.678528 L 686.114197 470.678528 L 686.114197 238.43689 L 690.088684 238.43689 Z M 690.088684 246.342834 L 690.088684 242.372589 L 694.028564 242.372589 L 694.028564 466.742859 L 690.088684 466.742859 L 690.088684 462.807129 L 749.221924 462.807129 L 749.221924 466.742859 L 745.247437 466.742859 L 745.247437 350.052368 C 745.247437 330.960693 750.120483 316.598785 759.832031 307.00116 C 769.509033 297.369019 784.128174 292.570221 803.620361 292.570221 C 812.398804 292.570221 818.274109 292.88092 821.280884 293.467834 L 820.520569 297.334503 L 816.546082 297.334503 L 816.546082 237.435699 L 820.520569 237.435699 L 819.933044 241.371399 C 816.407837 240.853546 812.813538 240.577362 809.184631 240.577362 C 795.394958 240.577362 783.955383 244.06427 774.935059 251.072601 C 765.672791 258.219025 757.758423 268.852356 751.157349 282.972595 L 750.085938 285.25116 L 742.79364 285.25116 L 742.79364 242.372589 L 746.733582 242.372589 L 746.733582 246.342834 L 690.088684 246.342834 Z"/>
                                </g>
                                <g id="g8">
                                    <path id="path3" fill="#000000" stroke="none" d="M 1066.022583 385.508301 C 1062.601074 412.678528 1051.679932 434.670227 1033.224487 451.448792 C 1014.734558 468.261902 990.161926 476.651184 959.472107 476.651184 C 924.773193 476.651184 898.126953 466.259521 879.567871 445.510681 C 861.112488 424.865479 851.884827 396.659485 851.884827 360.961884 C 851.884827 318.773773 861.596375 286.873779 881.019409 265.261871 C 900.546204 243.546417 928.021912 232.671387 963.377441 232.671387 C 990.956848 232.671387 1014.35437 240.232117 1033.639282 255.319031 C 1053.062256 270.578552 1064.018066 292.915436 1066.437256 322.329742 L 1066.782837 326.610687 L 999.216858 326.610687 L 998.629272 323.330933 C 996.59021 311.765442 992.615723 303.307098 986.705872 298.024963 C 980.865112 292.811859 973.088989 290.18808 963.377441 290.18808 C 949.691406 290.18808 939.219543 295.573792 931.961792 306.345215 C 924.358459 317.599976 920.556824 332.583313 920.556824 351.260681 C 920.556824 378.465454 924.358459 396.832123 931.961792 406.326172 C 939.357788 415.578552 949.414917 420.170227 962.167786 420.170227 C 972.259521 420.170227 980.588623 416.717834 987.08606 409.81308 C 993.72168 402.735687 997.419678 394.38092 998.179993 384.714264 L 998.456482 381.089264 L 1066.575562 381.089264 L 1066.022583 385.508301 Z M 1058.177246 384.541626 L 1062.082642 385.024963 L 1062.082642 388.995209 L 1002.119934 388.995209 L 1002.119934 385.024963 L 1006.059814 385.335693 C 1005.161255 396.832123 1000.772034 406.774963 992.857666 415.198792 C 984.805054 423.795227 974.575073 428.076172 962.167786 428.076172 C 946.857422 428.076172 934.76123 422.483337 925.775452 411.263062 C 917.031616 400.319031 912.642395 380.329742 912.642395 351.260681 C 912.642395 330.995209 916.893372 314.527344 925.395264 301.926147 C 934.208252 288.841644 946.857422 282.282104 963.377441 282.282104 C 975.128052 282.282104 984.632263 285.56189 991.993652 292.121399 C 999.251404 298.646393 1004.089905 308.589264 1006.440002 321.984497 L 1002.534668 322.674988 L 1002.534668 318.704742 L 1062.497314 318.704742 L 1062.497314 322.674988 L 1058.557495 322.985687 C 1056.311035 295.849976 1046.357544 275.37735 1028.731567 261.567841 C 1010.898315 247.551178 989.125122 240.577362 963.377441 240.577362 C 930.372009 240.577362 904.866272 250.554718 886.894714 270.544006 C 868.819519 290.671417 859.799194 320.776154 859.799194 360.961884 C 859.799194 394.657104 868.335693 421.102356 885.477722 440.228546 C 902.481567 459.25116 927.123352 468.745209 959.472107 468.745209 C 988.122864 468.745209 1010.932861 461.046417 1027.9021 445.614258 C 1044.906006 430.147583 1054.997681 409.778564 1058.177246 384.541626 Z"/>
                                </g>
                                <g id="g9">
                                    <path id="path4" fill="#000000" stroke="none" d="M 1176.538452 219.794006 L 1113.430664 219.794006 L 1113.430664 157.133301 L 1180.478394 157.133301 L 1180.478394 219.794006 L 1176.538452 219.794006 Z M 1176.538452 211.888062 L 1176.538452 215.823792 L 1172.563965 215.823792 L 1172.563965 161.069 L 1176.538452 161.069 L 1176.538452 165.039246 L 1117.405151 165.039246 L 1117.405151 161.069 L 1121.345093 161.069 L 1121.345093 215.823792 L 1117.405151 215.823792 L 1117.405151 211.888062 L 1176.538452 211.888062 Z M 1180.478394 242.372589 L 1180.478394 470.678558 L 1113.430664 470.678558 L 1113.430664 238.436859 L 1180.478394 238.436859 L 1180.478394 242.372589 Z M 1172.563965 242.372589 L 1176.538452 242.372589 L 1176.538452 246.342834 L 1117.405151 246.342834 L 1117.405151 242.372589 L 1121.345093 242.372589 L 1121.345093 466.742828 L 1117.405151 466.742828 L 1117.405151 462.807129 L 1176.538452 462.807129 L 1176.538452 466.742828 L 1172.563965 466.742828 L 1172.563965 242.372589 Z"/>
                                </g>
                                <g id="g10">
                                    <path id="path5" fill="#000000" stroke="none" d="M 1311.798584 238.43689 L 1354.066162 238.43689 L 1354.066162 288.530945 L 1311.798584 288.530945 L 1311.798584 284.595245 L 1315.738403 284.595245 L 1315.738403 470.678558 L 1248.690796 470.678558 L 1248.690796 284.595245 L 1252.665283 284.595245 L 1252.665283 288.530945 L 1217.171509 288.530945 L 1217.171509 238.43689 L 1252.665283 238.43689 L 1252.665283 242.37262 L 1248.690796 242.37262 L 1248.690796 224.282135 C 1248.690796 201.151184 1254.807983 183.992828 1267.077026 172.772614 C 1279.242432 161.655945 1298.389038 156.097595 1324.551392 156.097595 C 1331.394409 156.097595 1339.585327 156.442841 1349.158569 157.133331 L 1352.822021 157.409515 L 1352.822021 213.614288 L 1348.501953 213.165466 C 1344.354614 212.785706 1340.034546 212.578552 1335.472534 212.578552 C 1330.150269 212.578552 1326.072144 212.923798 1323.203613 213.614288 C 1320.922485 214.166656 1319.298218 214.995239 1318.365112 216.169037 C 1317.328247 217.446411 1316.637085 219.310699 1316.325928 221.796417 C 1315.945801 224.834503 1315.738403 228.839264 1315.738403 233.741669 L 1315.738403 242.37262 L 1311.798584 242.37262 L 1311.798584 238.43689 Z M 1307.824097 246.342834 L 1307.824097 233.741669 C 1307.824097 228.494049 1308.031372 224.178558 1308.480713 220.795227 C 1308.999146 216.824982 1310.243286 213.614288 1312.213257 211.163086 C 1314.286865 208.642853 1317.362793 206.882141 1321.371826 205.915466 C 1324.827881 205.086884 1329.528198 204.672607 1335.472534 204.672607 C 1340.276489 204.672607 1344.873047 204.879761 1349.262329 205.328552 L 1348.88208 209.264282 L 1344.907593 209.264282 L 1344.907593 161.069031 L 1348.88208 161.069031 L 1348.605591 165.039276 C 1339.205078 164.348785 1331.187012 164.003571 1324.551392 164.003571 C 1300.462646 164.003571 1283.078613 168.871429 1272.43396 178.607147 C 1261.892944 188.273804 1256.605225 203.464264 1256.605225 224.282135 L 1256.605225 246.342834 L 1221.11145 246.342834 L 1221.11145 242.37262 L 1225.085938 242.37262 L 1225.085938 284.595245 L 1221.11145 284.595245 L 1221.11145 280.625 L 1256.605225 280.625 L 1256.605225 466.742859 L 1252.665283 466.742859 L 1252.665283 462.807129 L 1311.798584 462.807129 L 1311.798584 466.742859 L 1307.824097 466.742859 L 1307.824097 280.625 L 1350.126343 280.625 L 1350.126343 284.595245 L 1346.151855 284.595245 L 1346.151855 242.37262 L 1350.126343 242.37262 L 1350.126343 246.342834 L 1307.824097 246.342834 Z"/>
                                </g>
                                <g id="g11">
                                    <path id="path6" fill="#000000" stroke="none" d="M 1525.575073 464.326172 C 1514.377319 496.364319 1505.910034 517.769043 1500.20752 528.505981 C 1494.228516 539.69165 1486.867065 547.942871 1478.123291 553.190491 C 1469.41394 558.43811 1455.071289 561.06189 1435.095215 561.06189 C 1425.038086 561.06189 1415.948608 560.578613 1407.826904 559.577393 L 1404.336304 559.163086 L 1404.336304 504.442871 L 1408.829102 505.029785 C 1412.907349 505.547607 1418.091431 505.823792 1424.38147 505.823792 C 1432.123047 505.823792 1438.343994 504.235718 1443.113281 501.094055 C 1447.675293 498.125 1451.684326 489.56311 1455.140381 475.477386 L 1459.01123 476.409546 L 1455.278687 477.755981 L 1370.155762 238.43689 L 1444.668579 238.43689 L 1493.502686 406.567871 L 1489.70105 407.672607 L 1489.70105 403.702393 L 1490.737915 403.702393 L 1490.737915 407.672607 L 1486.901611 406.602386 L 1533.662231 238.43689 L 1604.684326 238.43689 L 1525.575073 464.326172 Z M 1518.109863 461.736908 L 1595.387451 241.095245 L 1599.120117 242.37262 L 1599.120117 246.342865 L 1536.668945 246.342865 L 1536.668945 242.37262 L 1540.505249 243.442841 L 1493.744629 411.608337 L 1486.728882 411.608337 L 1437.894653 243.477386 L 1441.696289 242.37262 L 1441.696289 246.342865 L 1375.754639 246.342865 L 1375.754639 242.37262 L 1379.487183 241.060699 L 1463.123901 476.202393 L 1462.847412 477.376221 C 1458.872925 493.464294 1453.758057 503.579773 1447.468018 507.722656 C 1441.385254 511.727417 1433.678223 513.729797 1424.38147 513.729797 C 1417.74585 513.729797 1412.216064 513.419067 1407.792358 512.866699 L 1408.310791 508.930969 L 1412.25061 508.930969 L 1412.25061 555.676208 L 1408.310791 555.676208 L 1408.794556 551.740479 C 1416.605347 552.672607 1425.349121 553.155945 1435.095215 553.155945 C 1453.585205 553.155945 1466.579956 550.911926 1474.045044 546.423828 C 1481.5448 541.901184 1487.938477 534.720215 1493.226318 524.777405 C 1498.755981 514.385742 1507.050537 493.395264 1518.109863 461.736908 Z"/>
                                </g>
                                <g id="g12">
                                    <path id="path7" fill="#000000" stroke="none" d="M 268.127838 305.30954 C 284.233093 305.30954 296.121979 301.580963 303.794434 294.12381 C 311.432343 286.666687 315.268555 275.135712 315.268555 259.461914 C 315.268555 243.649994 310.879364 232.49881 302.135529 226.042877 C 293.460785 219.517883 280.569672 216.238098 263.427612 216.238098 L 209.374756 216.238098 L 209.374756 305.30954 L 268.127838 305.30954 Z M 209.374756 466.742859 L 146.197906 466.742859 L 146.197906 164.176208 L 284.44046 164.176208 C 313.264038 164.176208 336.177765 172.841675 353.147034 190.138092 C 370.081757 207.365479 378.583679 231.014282 378.583679 261.119049 C 378.583679 287.080963 370.219971 309.694061 353.561768 328.923828 C 336.972656 348.084534 313.091248 357.647644 281.952118 357.647644 L 209.374756 357.647644 L 209.374756 466.742859 Z"/>
                                </g>
                                <g id="g13">
                                    <path id="path8" fill="#000000" stroke="none" d="M 575.46637 332.37619 C 574.153076 318.117859 569.45282 306.655945 561.365601 297.990479 C 553.347534 289.359528 542.841125 285.009521 529.846313 285.009521 C 501.817627 285.009521 485.81604 300.821442 481.876129 332.37619 L 575.46637 332.37619 Z M 633.804749 401.009521 C 626.892578 424.209534 614.588989 441.989319 596.893982 454.314301 C 579.198914 466.570251 558.600769 472.680969 535.099548 472.680969 C 498.119629 472.680969 469.883575 462.530975 450.356812 442.161926 C 430.795502 421.723816 421.049408 393.483337 421.049408 357.371429 C 421.049408 321.190491 430.207977 292.017853 448.559662 269.819061 C 466.876831 247.654785 494.24884 236.538086 530.675781 236.538086 C 563.370117 236.538086 589.152344 246.964294 607.953369 267.74762 C 626.823486 288.461914 636.293091 319.257141 636.293091 360.133331 L 636.293091 370.628571 L 480.217224 370.628571 C 481.59964 388.857147 486.921967 402.528564 496.253357 411.642883 C 505.653839 420.757141 518.372192 425.314301 534.408325 425.314301 C 544.085266 425.314301 552.414429 423.104797 559.430237 418.68573 C 566.411499 414.197632 570.938904 408.294067 572.977966 401.009521 L 633.804749 401.009521 Z"/>
                                </g>
                                <g id="g14">
                                    <path id="Path" fill="#000000" fill-rule="evenodd" stroke="none" d="M 690.12323 242.338104 L 746.802673 242.338104 L 746.802673 281.280945 L 747.632141 281.280945 C 754.440552 266.573822 762.735107 255.422638 772.515747 247.861908 C 782.261902 240.335724 794.496338 236.538086 809.150085 236.538086 C 813.020874 236.538086 816.787964 236.814301 820.485962 237.366669 L 820.485962 297.300018 C 817.790222 296.74762 812.191406 296.471436 803.620361 296.471436 C 785.164978 296.471436 771.478943 300.890472 762.562317 309.728577 C 753.714783 318.566681 749.291016 332.030945 749.291016 350.052399 L 749.291016 466.742859 L 690.12323 466.742859 L 690.12323 242.338104 Z"/>
                                </g>
                                <g id="g15">
                                    <path id="path9" fill="#000000" fill-rule="evenodd" stroke="none" d="M 1062.117065 384.990479 C 1058.799316 411.228577 1048.292847 432.426208 1030.597778 448.514282 C 1012.902771 464.636902 989.194153 472.680969 959.541138 472.680969 C 925.982727 472.680969 900.304199 462.738098 882.540039 442.852417 C 864.741272 422.966675 855.859192 395.692871 855.859192 360.961914 C 855.859192 319.80954 865.190552 288.807159 883.922424 267.885712 C 902.72345 246.99881 929.196899 236.538086 963.411926 236.538086 C 990.023621 236.538086 1012.626282 243.822632 1031.150757 258.357147 C 1049.744385 272.926178 1060.216309 294.330963 1062.53186 322.571442 L 1002.534546 322.571442 C 1000.322693 310.142853 995.898926 300.994049 989.263306 295.090485 C 982.696777 289.221436 974.091187 286.25238 963.411926 286.25238 C 948.274353 286.25238 936.731079 292.259521 928.713013 304.204773 C 920.694946 316.080963 916.685913 331.789307 916.685913 351.295258 C 916.685913 379.397614 920.729553 398.523804 928.851257 408.742859 C 937.042175 418.961914 948.136108 424.071442 962.167725 424.071442 C 973.399963 424.071442 982.662231 420.204773 989.954468 412.471436 C 997.212219 404.738098 1001.290405 395.589294 1002.119873 384.990479 L 1062.117065 384.990479 Z"/>
                                </g>
                                <g id="g16">
                                    <path id="path10" fill="#000000" stroke="none" d="M 1176.607544 215.823822 L 1117.439697 215.823822 L 1117.439697 161 L 1176.607544 161 L 1176.607544 215.823822 Z M 1176.607544 242.338104 L 1176.607544 466.742859 L 1117.439697 466.742859 L 1117.439697 242.338104 L 1176.607544 242.338104 Z"/>
                                </g>
                                <g id="g17">
                                    <path id="path11" fill="#000000" fill-rule="evenodd" stroke="none" d="M 1311.764038 242.338074 L 1350.195435 242.338074 L 1350.195435 284.595215 L 1311.764038 284.595215 L 1311.764038 466.742828 L 1252.596191 466.742828 L 1252.596191 284.595215 L 1221.076904 284.595215 L 1221.076904 242.338074 L 1252.596191 242.338074 L 1252.596191 224.247589 C 1252.596191 202.25592 1258.298706 186.06427 1269.738281 175.638062 C 1281.143311 165.246399 1299.460449 160.033295 1324.620605 160.033295 C 1331.325317 160.033295 1339.447144 160.37854 1348.951294 160.999969 L 1348.951294 209.195221 C 1344.59668 208.849976 1340.138306 208.642822 1335.541748 208.642822 C 1329.908325 208.642822 1325.484619 209.022583 1322.270508 209.747589 C 1319.125488 210.507111 1316.775269 211.784485 1315.220093 213.614258 C 1313.734009 215.478546 1312.766235 217.998779 1312.317017 221.209503 C 1311.93689 224.454742 1311.764038 228.632111 1311.764038 233.776154 L 1311.764038 242.338074 Z"/>
                                </g>
                                <g id="g18">
                                    <path id="path12" fill="#000000" fill-rule="evenodd" stroke="none" d="M 1521.911499 463.014282 C 1510.748413 494.845276 1502.35022 516.077393 1496.751343 526.676208 C 1491.11792 537.240479 1484.240356 544.93927 1476.153198 549.738098 C 1468.031494 554.605957 1454.345459 557.057129 1435.095215 557.057129 C 1425.210815 557.057129 1416.294189 556.573792 1408.276123 555.676208 L 1408.276123 509.000031 C 1412.492554 509.552399 1417.883911 509.828583 1424.450439 509.828583 C 1432.917847 509.828583 1439.864502 508.033356 1445.325073 504.442871 C 1450.751099 500.852386 1455.31311 491.49646 1459.011108 476.409546 L 1375.789063 242.338104 L 1441.730835 242.338104 L 1489.700928 407.638123 L 1490.806885 407.638123 L 1536.703491 242.338104 L 1599.189087 242.338104 L 1521.911499 463.014282 Z"/>
                                </g>
                            </g>
                        </g>
                    </g>
                    <g id="g19">
                        <g id="g20"/>
                        <g id="g21">
                            <g id="g22">
                                <g id="Clipped">
                                    <g id="g23"/>
                                    <g id="g24">
                                        <g id="g25">
                                            <path id="path13" fill="#000000" stroke="none" d="M 2006.448242 204.086182 C 2003.095825 194.868317 1997.808105 184.614746 1990.550293 173.359985 C 1983.085205 161.725464 1975.032593 151.437347 1966.461548 142.461182 L 1969.122681 139.906403 L 1970.677979 143.255219 L 1934.216431 159.895691 L 1932.695801 156.51236 L 1935.495239 154.095703 C 1943.720703 163.693298 1951.531372 174.913544 1958.927368 187.756409 C 1965.977661 200.01236 1971.092651 210.990936 1974.237671 220.657593 L 1970.712524 221.796875 L 1969.088135 218.482605 L 2008.314453 199.459991 L 2009.938843 202.808777 L 2006.448242 204.086182 Z M 2014.569946 204.707611 L 1968.50061 227.009979 L 1967.187256 222.970703 C 1964.180542 213.787354 1959.272949 203.292114 1952.499023 191.450439 C 1945.344971 179.021881 1937.776245 168.181396 1929.861816 158.929016 L 1926.647705 155.20047 L 1969.986694 135.418335 L 1971.818481 137.317108 C 1980.735107 146.63855 1989.064209 157.306396 1996.805786 169.355225 C 2004.374634 181.058777 2009.904297 191.795685 2013.429443 201.565948 L 2014.569946 204.707611 Z M 1839.174683 180.023071 L 1763.383179 180.023071 L 1763.383179 131.586182 L 1767.081177 131.586182 L 1767.081177 135.280212 L 1719.145508 135.280212 L 1719.145508 131.586182 L 1722.843506 131.586182 L 1722.843506 180.023071 L 1646.637329 180.023071 L 1646.637329 176.294495 L 1650.369873 176.294495 L 1650.369873 219.034973 L 1646.637329 219.034973 L 1646.637329 215.340942 L 1839.174683 215.340942 L 1839.174683 219.034973 L 1835.476685 219.034973 L 1835.476685 176.294495 L 1839.174683 176.294495 L 1839.174683 180.023071 Z M 1842.907227 172.600464 L 1842.907227 222.76355 L 1642.939331 222.76355 L 1642.939331 172.600464 L 1719.145508 172.600464 L 1719.145508 176.294495 L 1715.447632 176.294495 L 1715.447632 127.857605 L 1770.813721 127.857605 L 1770.813721 176.294495 L 1767.081177 176.294495 L 1767.081177 172.600464 L 1842.907227 172.600464 Z M 1671.693848 367.729034 C 1668.548828 384.404053 1664.297852 399.974274 1658.906372 414.50882 C 1653.10022 430.079041 1646.464478 443.094513 1638.964844 453.520721 L 1635.95813 451.345703 L 1637.858887 448.169525 C 1643.21582 451.380219 1649.436768 455.592133 1656.487061 460.839752 C 1664.055908 466.467133 1669.723877 471.127869 1673.456421 474.856415 L 1670.829834 477.480255 L 1667.753906 475.339752 C 1676.013916 463.532623 1683.686401 448.480225 1690.77124 430.217133 C 1697.441528 413.024292 1702.9021 394.726654 1707.187622 375.358795 L 1710.816406 376.152832 L 1710.056152 379.777832 L 1667.27002 370.663544 L 1668.030396 367.038544 L 1671.693848 367.729034 Z M 1665.092773 362.619507 L 1715.27478 373.287354 L 1714.445313 376.946899 C 1710.090698 396.694519 1704.491821 415.337372 1697.718018 432.910004 C 1690.391113 451.725464 1682.476685 467.295715 1673.871094 479.586182 L 1671.313599 483.211182 L 1668.203125 480.069519 C 1664.712524 476.617126 1659.355713 472.19809 1652.063354 466.777863 C 1645.220337 461.70285 1639.206787 457.629059 1634.057251 454.521912 L 1630.601196 452.45047 L 1632.916748 449.170715 C 1640.036255 439.296906 1646.36084 426.868317 1651.925171 411.919525 C 1657.178345 397.799286 1661.325562 382.608795 1664.401489 366.382599 L 1665.092773 362.619507 Z M 1707.671387 275.895691 L 1780.69812 275.895691 L 1780.69812 317.32428 L 1703.938843 317.32428 L 1703.938843 275.895691 L 1707.671387 275.895691 Z M 1707.671387 283.283783 L 1707.671387 279.589752 L 1711.369385 279.589752 L 1711.369385 313.630219 L 1707.671387 313.630219 L 1707.671387 309.901642 L 1777.000122 309.901642 L 1777.000122 313.630219 L 1773.267578 313.630219 L 1773.267578 279.589752 L 1777.000122 279.589752 L 1777.000122 283.283783 L 1707.671387 283.283783 Z M 1818.818481 352.400452 L 1818.818481 241.19928 L 1822.551025 241.19928 L 1822.551025 244.927856 L 1664.885376 244.927856 L 1664.885376 241.19928 L 1668.583374 241.19928 L 1668.583374 352.400452 L 1664.885376 352.400452 L 1664.885376 348.706421 L 1726.437866 348.706421 L 1726.437866 452.519531 C 1726.437866 455.833801 1725.539307 458.250458 1723.742188 459.769531 C 1722.152344 461.115936 1719.698486 461.771912 1716.380737 461.771912 C 1703.662354 461.771912 1692.914063 461.63382 1684.170166 461.392151 L 1684.273926 457.663574 L 1687.660767 456.109985 C 1690.875 463.014771 1693.74353 470.092133 1696.231812 477.342133 C 1699.204102 486.07666 1701.070313 493.464752 1701.830688 499.57547 L 1698.13269 500.024292 L 1698.13269 496.295715 C 1711.68042 496.295715 1721.564819 495.95047 1727.785767 495.26001 C 1736.425903 494.25882 1743.54541 492.256409 1749.075073 489.252869 C 1754.743042 486.214752 1758.717529 481.968323 1760.963989 476.479034 C 1763.106689 471.231415 1764.178101 463.6362 1764.178101 453.727844 L 1764.178101 348.706421 L 1822.551025 348.706421 L 1822.551025 352.400452 L 1818.818481 352.400452 Z M 1826.249023 356.129028 L 1767.876099 356.129028 L 1767.876099 352.400452 L 1771.574097 352.400452 L 1771.574097 453.727844 C 1771.574097 464.602844 1770.329834 473.130249 1767.841553 479.240936 C 1764.938477 486.421906 1759.858032 491.945709 1752.634766 495.743347 C 1746.241089 499.230225 1738.257568 501.50882 1728.615234 502.613586 C 1722.152344 503.373108 1711.991455 503.718323 1698.13269 503.718323 L 1694.884033 503.718323 L 1694.469238 500.473083 C 1693.778076 494.880249 1692.015503 487.975464 1689.181519 479.75882 C 1686.796753 472.750458 1684.031982 465.914764 1680.921509 459.251678 L 1678.364014 453.796906 L 1684.412109 453.969513 C 1693.086792 454.245697 1703.731567 454.349274 1716.380737 454.349274 C 1717.866821 454.349274 1718.730835 454.280243 1718.903687 454.107605 L 1718.834473 454.14212 C 1718.938232 453.796906 1719.007324 453.279053 1719.007324 452.519531 L 1719.007324 352.400452 L 1722.705322 352.400452 L 1722.705322 356.129028 L 1661.152832 356.129028 L 1661.152832 237.505219 L 1826.249023 237.505219 L 1826.249023 356.129028 Z M 1962.798096 456.248108 C 1958.858154 456.248108 1955.782349 454.867126 1953.535889 452.070709 L 1956.438965 449.757629 L 1953.812378 452.381439 C 1952.049805 450.620697 1951.151123 447.755219 1951.151123 443.819519 L 1951.151123 290.671875 L 1954.883789 290.671875 L 1954.883789 294.365936 L 1919.977417 294.365936 L 1921.705566 270.337372 L 2009.938843 270.337372 L 2009.938843 274.065918 L 2006.206299 274.065918 L 2006.206299 229.323059 L 2009.938843 229.323059 L 2009.938843 233.051666 L 1922.223877 233.051666 L 1922.223877 131.586182 L 1925.956421 131.586182 L 1925.956421 135.280212 L 1880.785645 135.280212 L 1880.785645 131.586182 L 1884.483643 131.586182 L 1884.483643 233.051666 L 1836.029663 233.051666 L 1836.029663 229.323059 L 1839.727661 229.323059 L 1839.727661 274.065918 L 1836.029663 274.065918 L 1836.029663 270.337372 L 1883.515991 270.337372 L 1883.308594 274.273071 C 1881.684326 303.031403 1877.986328 329.165955 1872.249268 352.64212 C 1865.026001 382.298065 1854.381348 408.467133 1840.349731 431.149292 L 1835.753174 438.571899 L 1833.610474 430.113556 C 1831.191162 420.619507 1827.769653 409.986176 1823.311401 398.248077 C 1818.680176 385.88855 1813.876343 374.875458 1808.934082 365.174255 L 1812.251953 363.482605 L 1813.461548 367.004028 L 1776.619873 379.674255 L 1775.410278 376.152832 L 1778.797241 374.633789 C 1783.808594 385.88855 1788.474243 397.902863 1792.828857 410.607605 C 1797.459961 424.209991 1800.674072 435.568329 1802.436768 444.717133 L 1798.773315 445.407623 L 1797.459961 441.920715 L 1844.462524 424.279053 L 1838.794556 433.496887 C 1829.083008 449.239746 1816.986694 463.739746 1802.471313 477.031433 L 1799.948364 474.304047 L 1801.641846 470.989746 C 1807.793579 474.062378 1814.947632 478.412384 1823.13855 484.07428 C 1831.433105 489.770721 1837.895996 494.880249 1842.561646 499.333801 L 1839.969604 501.992126 L 1837.412109 499.333801 C 1871.281494 466.846893 1894.990112 423.001648 1908.46875 367.76355 L 1915.795654 368.626648 L 1915.795654 446.995697 C 1915.795654 459.217133 1916.383179 467.882629 1917.592773 472.957611 C 1918.629639 477.445709 1920.703247 481.243347 1923.813721 484.350464 L 1923.882813 484.419525 C 1926.682251 487.38858 1930.449341 489.667145 1935.149658 491.255219 C 1939.642456 492.774292 1944.480957 493.533813 1949.699585 493.533813 L 1972.682495 493.533813 C 1977.002563 493.533813 1981.080688 493.015961 1984.986084 491.945709 C 1988.891357 490.875458 1992.105591 489.390961 1994.663086 487.526672 C 1997.808105 485.109985 2000.296387 482.520721 2002.128174 479.724274 C 2004.13269 476.651672 2005.65332 472.854034 2006.724731 468.331421 L 2006.724731 468.227844 L 2006.759277 468.124298 C 2009.074829 460.183807 2010.733765 442.438568 2011.770508 414.785004 L 2015.468506 414.923096 L 2014.328003 418.479034 C 2008.279907 416.5112 2002.05896 413.818329 1995.699829 410.365936 C 1988.753174 406.63736 1983.292603 402.839752 1979.249023 399.042145 L 1981.806519 396.349274 L 1985.504517 396.245697 C 1985.884644 415.164764 1985.504517 430.217133 1984.2948 441.437378 C 1983.811035 446.408813 1982.255737 450.206421 1979.663696 452.795715 L 1977.037109 450.171906 L 1980.009277 452.381439 C 1979.00708 453.76239 1977.417236 454.798096 1975.274536 455.454041 C 1973.650146 455.971893 1971.991211 456.248108 1970.332275 456.248108 L 1962.798096 456.248108 Z M 1962.798096 448.82547 L 1970.332275 448.82547 C 1971.230957 448.82547 1972.129517 448.687378 1972.99353 448.411194 C 1973.650146 448.204041 1973.995728 448.031433 1974.064941 447.927856 L 1974.237671 447.720703 L 1974.410522 447.548096 C 1974.894287 447.064758 1975.378174 446.236176 1975.827515 445.096893 C 1976.415039 443.715942 1976.76062 442.231415 1976.933472 440.677856 C 1978.073975 429.733795 1978.454102 414.992126 1978.108521 396.418335 L 1977.901123 387.511169 L 1984.364014 393.656433 C 1987.923706 397.039764 1992.865845 400.423096 1999.224976 403.840942 C 2005.169434 407.086182 2010.975708 409.606415 2016.609009 411.401672 L 2019.30481 412.26474 L 2019.20105 415.061188 C 2018.129761 443.301666 2016.367065 461.668335 2013.878784 470.195709 L 2010.31897 469.160004 L 2013.947876 469.988556 C 2012.703735 475.374268 2010.837402 479.965942 2008.348999 483.798096 C 2006.067993 487.285004 2002.95752 490.530243 1999.052246 493.499298 C 1995.768921 495.915955 1991.725342 497.780243 1986.956055 499.092133 C 1982.394043 500.334991 1977.65918 500.956421 1972.682495 500.956421 L 1949.699585 500.956421 C 1943.651489 500.956421 1938.018188 500.058807 1932.764893 498.298096 C 1926.889648 496.295715 1922.154785 493.361176 1918.491333 489.494507 L 1921.187134 486.974274 L 1918.560547 489.598083 C 1914.447754 485.489777 1911.717529 480.483795 1910.335083 474.649292 C 1909.021729 468.987366 1908.365112 459.769531 1908.365112 446.995697 L 1908.365112 368.626648 L 1912.06311 368.626648 L 1915.692017 369.524261 C 1901.867676 426.143341 1877.467896 471.196899 1842.561646 504.684998 L 1839.969604 507.1362 L 1837.412109 504.684998 C 1833.057495 500.507629 1826.871094 495.674286 1818.887573 490.150482 C 1811.007813 484.730225 1804.164795 480.552856 1798.289429 477.618317 L 1793.485474 475.20166 L 1797.459961 471.57666 C 1811.457031 458.733795 1823.13855 444.751648 1832.469971 429.595703 L 1835.61499 431.563568 L 1836.928223 435.015961 L 1795.973877 450.44809 L 1795.144409 446.098083 C 1793.450928 437.294525 1790.340454 426.281433 1785.812988 413.024292 C 1781.527588 400.492126 1776.930908 388.719513 1772.023315 377.671906 L 1770.364502 373.943329 L 1814.083618 358.925476 L 1815.569824 361.790955 C 1820.615601 371.733795 1825.523193 383.023071 1830.292603 395.624268 C 1834.820068 407.63858 1838.310669 418.51355 1840.799072 428.249268 L 1837.204712 429.181427 L 1834.059692 427.248108 C 1858.390381 387.890961 1872.318359 336.761169 1875.878052 273.82428 L 1879.610596 274.065918 L 1879.610596 277.759979 L 1832.297119 277.759979 L 1832.297119 225.629028 L 1880.785645 225.629028 L 1880.785645 229.323059 L 1877.053101 229.323059 L 1877.053101 127.857605 L 1929.654419 127.857605 L 1929.654419 229.323059 L 1925.956421 229.323059 L 1925.956421 225.629028 L 2013.636841 225.629028 L 2013.636841 277.759979 L 1925.161621 277.759979 L 1925.161621 274.065918 L 1928.859619 274.307587 L 1927.684448 290.94809 L 1923.951904 290.671875 L 1923.951904 286.943329 L 1958.581665 286.943329 L 1958.581665 443.819519 C 1958.581665 444.717133 1958.650879 445.5112 1958.823608 446.270721 C 1958.927368 446.615936 1958.99646 446.892151 1959.100098 447.099274 L 1959.065552 447.13382 L 1959.238403 447.271912 L 1959.342041 447.444519 C 1960.102417 448.376678 1961.24292 448.82547 1962.798096 448.82547 Z"/>
                                        </g>
                                    </g>
                                </g>
                                <g id="g26">
                                    <path id="path14" fill="#000000" stroke="none" d="M 2168.352783 179.401611 C 2156.221924 171.530182 2131.787598 158.411133 2095.015137 140.044464 L 2096.673828 136.730164 L 2099.611572 139.008728 L 2073.069092 173.049225 L 2070.131348 170.77066 L 2071.997559 167.525421 C 2073.898438 168.630188 2076.905273 170.321838 2081.018066 172.634949 C 2096.639404 181.473022 2108.251709 188.170654 2115.820557 192.693268 C 2128.884521 200.461121 2138.423096 206.675415 2144.505859 211.336121 L 2142.259521 214.305176 L 2139.252686 212.095642 L 2167.38501 174.08493 L 2170.357178 176.294464 L 2168.352783 179.401611 Z M 2175.714111 175.327789 L 2142.985107 219.552795 L 2139.978516 217.239716 C 2134.137695 212.751587 2124.806396 206.675415 2112.018799 199.045654 C 2104.484619 194.557556 2092.941406 187.928986 2077.354492 179.090881 C 2073.241943 176.777802 2070.200439 175.086121 2068.299561 173.981354 L 2064.567139 171.875397 L 2095.637207 132.034912 L 2098.332764 133.415894 C 2135.381836 151.886139 2160.058105 165.14328 2172.39624 173.187317 L 2175.714111 175.327789 Z M 2149.413574 286.321838 C 2139.010742 279.934937 2116.546387 268.300415 2081.951172 251.383759 C 2078.909668 249.899231 2076.66333 248.794464 2075.246338 248.103973 L 2076.870605 244.755188 L 2079.877441 246.930176 L 2054.544434 281.764709 L 2051.537842 279.589691 L 2053.300293 276.344482 C 2091.144287 296.851624 2115.820557 311.178986 2127.36377 319.292084 L 2125.220947 322.3302 L 2122.110596 320.258759 L 2148.272949 281.108765 L 2151.348877 283.14566 L 2149.413574 286.321838 Z M 2156.602051 282.006378 L 2126.188721 327.57782 L 2123.078369 325.368286 C 2111.776855 317.39328 2087.342529 303.238525 2049.740479 282.834961 L 2046.042603 280.832581 L 2075.695557 240.059937 L 2078.529541 241.440887 C 2079.946533 242.131378 2082.158447 243.236115 2085.234375 244.720642 C 2120.036865 261.740906 2142.70874 273.513519 2153.28418 280.003998 L 2156.602051 282.006378 Z M 2093.528809 494.880188 C 2116.891846 457.801605 2140.220459 416.200409 2163.479736 370.111145 L 2166.797607 371.802795 L 2164.309082 374.530182 L 2129.817627 342.871857 L 2132.340576 340.14447 L 2135.658447 341.836151 C 2124.32251 363.724243 2111.362305 386.613525 2096.84668 410.469452 C 2083.644531 432.150421 2071.410156 450.965912 2060.108887 466.950409 L 2057.067383 464.809937 L 2059.41748 461.909943 L 2099.02417 493.982574 L 2096.673828 496.848053 L 2093.528809 494.880188 Z M 2097.607178 502.371857 L 2052.021484 465.500427 L 2054.026123 462.669464 C 2065.223877 446.823059 2077.38916 428.14566 2090.487549 406.637329 C 2104.933838 382.884949 2117.790527 360.168274 2129.057373 338.418274 L 2131.269043 334.137329 L 2171.394043 370.974243 L 2170.115234 373.459961 C 2146.752197 419.756378 2123.320313 461.530182 2099.818848 498.815887 L 2097.607178 502.371857 Z M 2353.805176 445.95993 L 2230.838379 445.95993 L 2230.838379 380.364716 L 2357.503174 380.364716 L 2357.503174 445.95993 L 2353.805176 445.95993 Z M 2353.805176 438.537323 L 2353.805176 442.231384 L 2350.07251 442.231384 L 2350.07251 384.058746 L 2353.805176 384.058746 L 2353.805176 387.787323 L 2234.536377 387.787323 L 2234.536377 384.058746 L 2238.268799 384.058746 L 2238.268799 442.231384 L 2234.536377 442.231384 L 2234.536377 438.537323 L 2353.805176 438.537323 Z M 2414.666504 291.465881 L 2414.666504 246.343262 L 2418.364502 246.343262 L 2418.364502 250.071838 L 2314.025879 250.071838 L 2314.025879 189.068268 L 2317.067139 188.481354 C 2350.521973 182.128998 2379.103516 174.39566 2402.777588 165.315887 L 2404.125488 168.76828 L 2401.464355 171.39209 L 2365.002686 134.175415 L 2367.663818 131.586121 L 2369.046387 135.038513 C 2348.102539 143.39328 2320.004883 150.988495 2284.787598 157.824219 C 2253.060791 163.969452 2219.122314 168.871857 2183.041016 172.462311 L 2182.660889 168.76828 L 2186.013184 167.180176 C 2188.8125 172.980164 2191.508301 179.781372 2194.065918 187.514709 C 2196.830566 195.903992 2198.62793 202.946838 2199.422852 208.64328 L 2195.724854 209.161133 L 2195.37915 205.467072 C 2226.034424 202.532562 2251.712891 199.528992 2272.414795 196.387329 L 2276.700439 195.731354 L 2276.700439 250.071838 L 2167.592285 250.071838 L 2167.592285 246.343262 L 2171.324951 246.343262 L 2171.324951 291.465881 L 2167.592285 291.465881 L 2167.592285 287.737335 L 2276.700439 287.737335 L 2276.700439 345.046844 L 2192.165039 345.046844 L 2192.165039 341.318298 L 2195.863037 341.318298 L 2195.863037 501.198029 L 2192.165039 501.198029 L 2192.165039 497.503998 L 2234.536377 497.503998 L 2234.536377 501.198029 L 2230.838379 501.198029 L 2230.838379 481.277802 L 2357.503174 481.277802 L 2357.503174 499.230194 L 2353.805176 499.230194 L 2353.805176 495.501617 L 2398.561035 495.501617 L 2398.561035 499.230194 L 2394.863281 499.230194 L 2394.863281 341.318298 L 2398.561035 341.318298 L 2398.561035 345.046844 L 2314.025879 345.046844 L 2314.025879 287.737335 L 2418.364502 287.737335 L 2418.364502 291.465881 L 2414.666504 291.465881 Z M 2422.096924 295.159943 L 2317.758301 295.159943 L 2317.758301 291.465881 L 2321.456299 291.465881 L 2321.456299 341.318298 L 2317.758301 341.318298 L 2317.758301 337.624237 L 2402.293701 337.624237 L 2402.293701 502.924225 L 2350.07251 502.924225 L 2350.07251 484.971863 L 2353.805176 484.971863 L 2353.805176 488.700439 L 2234.536377 488.700439 L 2234.536377 484.971863 L 2238.268799 484.971863 L 2238.268799 504.926605 L 2188.432373 504.926605 L 2188.432373 337.624237 L 2272.967773 337.624237 L 2272.967773 341.318298 L 2269.269775 341.318298 L 2269.269775 291.465881 L 2272.967773 291.465881 L 2272.967773 295.159943 L 2163.894287 295.159943 L 2163.894287 242.649231 L 2272.967773 242.649231 L 2272.967773 246.343262 L 2269.269775 246.343262 L 2269.269775 200.046844 L 2272.967773 200.046844 L 2273.55542 203.70636 C 2252.680664 206.882568 2226.86377 209.920654 2196.070313 212.855164 L 2192.545166 213.165894 L 2192.061279 209.64447 C 2191.335449 204.396851 2189.64209 197.802795 2187.015381 189.827789 C 2184.5271 182.405182 2181.969482 175.914703 2179.30835 170.3909 L 2176.99292 165.626587 L 2182.280762 165.074219 C 2218.154541 161.51828 2251.851318 156.650421 2283.370605 150.539703 C 2318.138428 143.807556 2345.787109 136.315857 2366.281494 128.133728 L 2368.597168 127.201599 L 2410.726563 170.218262 L 2405.438721 172.255157 C 2381.349854 181.507568 2352.353516 189.344452 2318.449463 195.7659 L 2317.758301 192.1409 L 2321.456299 192.1409 L 2321.456299 246.343262 L 2317.758301 246.343262 L 2317.758301 242.649231 L 2422.096924 242.649231 L 2422.096924 295.159943 Z"/>
                                </g>
                                <g id="g27">
                                    <path id="path15" fill="#000000" stroke="none" d="M 2009.938843 202.808807 C 2003.199463 184.2005 1986.956055 158.480255 1969.122681 139.906433 L 1932.695801 156.51239 C 1949.319458 175.914764 1964.768066 203.602875 1970.712524 221.796906 L 2009.938843 202.808807 Z M 1839.174683 176.294525 L 1767.081177 176.294525 L 1767.081177 131.586182 L 1719.14563 131.586182 L 1719.14563 176.294525 L 1646.637329 176.294525 L 1646.637329 219.035004 L 1839.174683 219.035004 L 1839.174683 176.294525 Z M 1668.030396 367.038605 C 1662.085938 398.696899 1650.991943 430.355225 1635.95813 451.345703 C 1645.842407 457.283813 1663.295532 469.954041 1670.829834 477.480286 C 1688.248413 452.519531 1702.521851 413.749329 1710.816406 376.152893 L 1668.030396 367.038605 Z M 1707.671387 279.589783 L 1777.000122 279.589783 L 1777.000122 313.630249 L 1707.671387 313.630249 L 1707.671387 279.589783 Z M 1822.551025 352.400513 L 1822.551025 241.19928 L 1664.885376 241.19928 L 1664.885376 352.400513 L 1722.705322 352.400513 L 1722.705322 452.519531 C 1722.705322 456.869568 1721.115479 458.077881 1716.380737 458.077881 C 1712.026123 458.077881 1697.372314 458.077881 1684.273926 457.663574 C 1689.838135 469.539795 1696.577515 487.354065 1698.13269 500.024292 C 1721.115479 500.024292 1737.773804 499.610046 1750.837646 492.498108 C 1764.316284 485.38623 1767.876099 473.51001 1767.876099 453.727905 L 1767.876099 352.400513 L 1822.551025 352.400513 Z M 1962.798096 452.519531 C 1960.413452 452.519531 1958.028809 451.725464 1956.438965 449.757629 C 1955.263916 448.583801 1954.883789 445.787415 1954.883789 443.819519 L 1954.883789 290.671936 L 1923.951904 290.671936 C 1924.366699 285.113586 1924.746826 279.589783 1925.161621 274.065979 L 2009.938843 274.065979 L 2009.938843 229.32309 L 1925.956421 229.32309 L 1925.956421 131.586182 L 1880.785767 131.586182 L 1880.785767 229.32309 L 1836.029663 229.32309 L 1836.029663 274.065979 L 1879.610596 274.065979 C 1876.811279 323.124298 1867.307007 380.502869 1837.204712 429.181458 C 1832.435425 410.57312 1822.551025 383.679077 1812.251953 363.482635 L 1775.410278 376.152893 C 1784.914429 397.523132 1795.213501 426.799316 1798.773315 445.407654 L 1835.61499 431.563599 C 1826.110718 446.995728 1814.221924 461.254089 1799.948364 474.304077 C 1811.83728 480.242188 1830.880127 493.292175 1839.969604 501.992188 C 1878.815796 464.809998 1900.20874 417.305237 1912.06311 368.626678 L 1912.06311 446.995728 C 1912.06311 472.301697 1914.067627 479.827881 1921.187134 486.974304 C 1927.926392 494.086182 1939.020386 497.26239 1949.699585 497.26239 L 1972.682495 497.26239 C 1981.806519 497.26239 1990.930542 494.880249 1996.874878 490.530273 C 2003.579712 485.38623 2007.968872 479.44812 2010.31897 469.160034 C 2013.118408 459.665955 2014.673706 436.293335 2015.468506 414.923096 C 2004.374634 411.367188 1989.720825 403.840942 1981.806519 396.349304 C 1982.186646 416.13147 1981.42627 433.531433 1980.63147 441.057617 C 1980.216675 445.027893 1978.626953 448.583801 1977.037109 450.171936 C 1975.862061 451.725464 1972.682495 452.519531 1970.332397 452.519531 L 1962.798096 452.519531 Z"/>
                                </g>
                                <g id="g28">
                                    <path id="path16" fill="#000000" stroke="none" d="M 2170.357178 176.294525 C 2153.353516 165.212372 2118.861816 147.812378 2096.674072 136.730225 L 2070.131348 170.770721 C 2093.114258 183.820709 2126.810791 202.429047 2142.259521 214.305237 L 2170.357178 176.294525 Z M 2151.348877 283.145721 C 2133.93042 272.477875 2098.678467 255.457642 2076.87085 244.755249 L 2051.537842 279.589783 C 2074.900879 292.26001 2108.977539 310.868347 2125.221191 322.330261 L 2151.348877 283.145721 Z M 2096.674072 496.848145 C 2120.866455 458.457642 2145.819336 413.335022 2166.797607 371.802887 L 2132.340576 340.144531 C 2108.562988 386.061218 2078.080322 435.119568 2057.067383 464.809998 L 2096.674072 496.848145 Z M 2353.805176 442.231445 L 2234.536377 442.231445 L 2234.536377 384.058838 L 2353.805176 384.058838 L 2353.805176 442.231445 Z M 2418.364502 291.465973 L 2418.364502 246.343353 L 2317.758545 246.343353 L 2317.758545 192.140961 C 2349.035889 186.20285 2378.377686 178.676666 2404.125488 168.768341 L 2367.664063 131.586182 C 2324.083008 148.986206 2250.019531 162.036194 2182.660889 168.768341 C 2187.810303 179.470734 2194.13501 197.664764 2195.724854 209.161194 C 2220.67749 206.779053 2246.840088 204.017151 2272.967773 200.046906 L 2272.967773 246.343353 L 2167.592529 246.343353 L 2167.592529 291.465973 L 2272.967773 291.465973 L 2272.967773 341.318359 L 2192.165039 341.318359 L 2192.165039 501.19812 L 2234.536377 501.19812 L 2234.536377 484.971924 L 2353.805176 484.971924 L 2353.805176 499.230286 L 2398.561279 499.230286 L 2398.561279 341.318359 L 2317.758545 341.318359 L 2317.758545 291.465973 L 2418.364502 291.465973 Z"/>
                                </g>
                            </g>
                        </g>
                    </g>
                </g>
            </g>
        </g>
    </g>
</svg>
