<?xml version="1.0" encoding="UTF-8"?>
<svg width="190px" height="153px" viewBox="0 0 190 153" version="1.1" xmlns="http://www.w3.org/2000/svg" xmlns:xlink="http://www.w3.org/1999/xlink">
    <title>Path</title>
    <g id="Page-1" stroke="none" stroke-width="1" fill="none" fill-rule="evenodd">
        <path d="M0.481750488,152.238953 L0.481750488,107.32547 L89.5762939,107.32547 C100.916626,107.32547 109.615662,104.739105 115.673401,99.5663757 C121.73114,94.3936462 124.76001,86.924469 124.76001,77.158844 L124.76001,76.8658752 C124.76001,67.091095 121.718933,59.6295471 115.63678,54.4812317 C109.554626,49.3329163 100.867798,46.7587585 89.5762939,46.7587585 L0.481750488,46.7587585 L0.481750488,0.623046875 L100.448181,0.623046875 C118.931152,0.623046875 134.817459,3.7804718 148.107101,10.0953217 C161.396744,16.4101715 171.621658,25.2247925 178.781845,36.5391846 C185.942032,47.8535767 189.522125,61.0715027 189.522125,76.1929626 L189.522125,76.4859314 C189.522125,91.3281555 185.938599,104.443085 178.771545,115.830719 C171.604492,127.218353 161.376144,136.133301 148.086502,142.575562 C134.79686,149.017822 118.917419,152.238953 100.448181,152.238953 L0.481750488,152.238953 Z" id="Path" fill="#FAFAFA"></path>
    </g>
</svg>