<?xml version="1.0" encoding="UTF-8"?>
<svg width="712px" height="130px" viewBox="0 0 712 130" version="1.1" xmlns="http://www.w3.org/2000/svg" xmlns:xlink="http://www.w3.org/1999/xlink">
    <title>Group</title>
    <g id="Page-1" stroke="none" stroke-width="1" fill="none" fill-rule="evenodd">
        <g id="Group" transform="translate(-7.5, -28)" fill="#FAFAFA" fill-rule="nonzero">
            <g id="就活" transform="translate(484.5, 24)">
                <path d="M90.84,32.56 C91.2,26.32 91.32,22.24 91.32,16.72 C91.32,11.44 91.56,8.2 91.92,5.32 L75.96,5.32 C76.32,8.44 76.56,11.56 76.56,16.12 C76.56,19.6 76.44,24.52 76.08,32.56 L74.16,32.56 C68.28,32.56 65.76,32.44 62.76,31.96 L62.76,47.56 C65.76,47.2 68.88,47.08 74.04,47.08 L75.12,47.08 C73.32,63.04 69.36,75.76 62.4,87.76 C59.28,79.6 57.72,76.12 54.6,70.12 L43.92,74.44 C47.88,82.96 49.2,86.68 51,94.36 L62.04,88.36 C57.84,95.08 53.04,100.84 47.76,105.4 C52.56,109.6 55.08,112.36 59.04,117.76 C72.12,104.2 80.4,88.84 85.56,68.32 L84.96,104.92 C84.96,109 85.8,111.16 88.2,112.6 C90.48,114.16 93.6,114.76 99.12,114.76 C114.6,114.76 116.4,111.52 117,83.44 C112.32,82.12 109.44,80.92 105.24,78.28 C105.24,79.48 105.24,80.2 105.24,81.04 C105.24,87.04 105,94.12 104.64,96.76 C104.4,99.4 103.68,100.12 101.28,100.12 C99.24,100.12 98.76,99.76 98.88,98.2 C98.88,97.96 98.88,97.84 98.88,97.84 L99.12,62.44 C99.12,58 99.24,56.2 99.6,53.44 L88.44,53.44 C88.92,50.56 89.04,49.96 89.4,47.08 L103.08,47.08 C108.84,47.08 111.72,47.2 115.08,47.56 L115.08,31.96 C111.96,32.44 110.04,32.56 103.8,32.56 L115.32,23.8 C110.4,16 108,12.64 102.12,6.04 L91.44,13.36 C97.08,20.56 99.36,24.16 103.68,32.56 L90.84,32.56 Z M27.6,16 L16.32,16 C10.32,16 8.16,15.88 4.8,15.4 L4.8,30.52 C8.28,30.04 11.04,29.92 16.44,29.92 L52.92,29.92 C58.32,29.92 61.2,30.04 64.56,30.4 L64.56,15.4 C61.2,15.88 58.68,16 52.92,16 L43.2,16 L43.2,13.72 C43.2,9.04 43.32,7.12 43.8,4.84 L27,4.84 C27.48,7.48 27.6,9.4 27.6,13.96 L27.6,16 Z M28.2,68.08 L28.2,99.04 C28.2,101.08 27.6,101.56 25.32,101.56 C23.28,101.56 21,101.32 18.6,100.96 C21.72,92.32 22.8,86.68 24,74.32 L11.28,71.56 C10.08,83.56 7.92,90.88 2.64,100.6 C7.92,103.24 10.56,104.92 15.24,109.12 C16.92,105.28 17.4,103.96 18.6,100.96 C20.64,107.08 21.12,109.24 21.72,115.36 C24.72,115.48 26.52,115.6 27.24,115.6 C33.96,115.6 37.8,114.76 40.08,112.72 C42,110.8 43.2,107.08 43.2,102.64 L43.2,68.08 L49.08,68.08 C53.64,68.08 56.88,68.2 60.24,68.44 C59.88,65.44 59.76,62.8 59.76,57.64 L59.76,45.4 C59.76,40.48 59.88,37.72 60.24,34.96 C57.12,35.2 53.52,35.32 48.72,35.32 L21.48,35.32 C16.68,35.32 12.96,35.2 9.72,34.96 C10.08,38.08 10.2,41.44 10.2,45.64 L10.2,57.52 C10.2,61.72 10.08,65.32 9.72,68.44 C13.08,68.2 16.68,68.08 21.36,68.08 L28.2,68.08 Z M25.2,47.8 L44.76,47.8 L44.76,55.48 L25.2,55.48 L25.2,47.8 Z" id="Shape"></path>
                <path d="M185.52,52.84 L185.52,66.16 L169.56,66.16 C165.12,66.16 162.6,66.04 159.72,65.8 C159.96,68.8 160.08,72.28 160.08,76 L160.08,103.48 C160.08,107.68 159.84,112.96 159.6,116.2 L175.2,116.2 L175.2,110.68 L212.4,110.68 L212.4,116.2 L228.6,116.2 C228.24,112.96 228,108.4 228,103.6 L228,76.48 C228,72.4 228.12,68.8 228.48,65.8 C226.44,66.04 223.08,66.16 218.76,66.16 L201.36,66.16 L201.36,52.84 L220.92,52.84 C226.8,52.84 231.24,53.08 234.72,53.56 L234.72,37.6 C231.12,38.08 226.8,38.32 220.92,38.32 L201.36,38.32 L201.36,24.28 C208.2,23.2 221.16,20.92 225.24,19.84 C229.44,18.88 229.44,18.88 231.72,18.28 L221.4,4.12 C210.36,9.4 183.36,13.6 156.72,14.2 C159.72,19.6 160.8,22.48 162,28.12 C172.08,27.64 175.92,27.28 185.52,26.2 L185.52,38.32 L168.48,38.32 C162.72,38.32 158.64,38.08 154.8,37.6 L154.8,53.56 C158.88,53.08 163.32,52.84 168.6,52.84 L185.52,52.84 Z M175.32,80.08 L212.52,80.08 L212.52,96.4 L175.32,96.4 L175.32,80.08 Z M126.36,16.12 C135.72,22.12 140.52,25.84 148.2,32.8 L157.56,20.44 C149.4,13.6 146.28,11.32 135.96,4.84 L126.36,16.12 Z M122.88,47.08 C131.88,52.12 136.92,55.6 145.44,62.56 L154.08,49.36 C145.8,43.24 140.76,40 131.64,35.32 L122.88,47.08 Z M141.36,67.96 C135.24,85.12 129.72,96.04 123.24,103.96 L137.04,115.12 C143.16,104.68 148.08,93.64 153.96,76.72 L141.36,67.96 Z" id="Shape"></path>
            </g>
            <g id="Percify">
                <path d="M18.8276367,101.930664 L18.8276367,85.7636719 L43.0610352,85.7636719 C48.9855143,85.7636719 53.5940755,84.2483724 56.8867188,81.2177734 C60.179362,78.1871745 61.8256836,73.8805339 61.8256836,68.2978516 L61.8256836,68.1611328 C61.8256836,62.5328776 60.179362,58.2205404 56.8867188,55.2241211 C53.5940755,52.2277018 48.9855143,50.7294922 43.0610352,50.7294922 L18.8276367,50.7294922 L18.8276367,34.3574219 L48.0854492,34.3574219 C55.035319,34.3574219 61.1022135,35.7587891 66.2861328,38.5615234 C71.4700521,41.3642578 75.5089518,45.2949219 78.402832,50.3535156 C81.2967122,55.4121094 82.7436523,61.3251953 82.7436523,68.0927734 L82.7436523,68.2294922 C82.7436523,74.9970703 81.2967122,80.9101562 78.402832,85.96875 C75.5089518,91.0273438 71.4700521,94.9523112 66.2861328,97.7436523 C61.1022135,100.534993 55.035319,101.930664 48.0854492,101.930664 L18.8276367,101.930664 Z M8.47119141,133 L8.47119141,34.3574219 L29.1157227,34.3574219 L29.1157227,133 L8.47119141,133 Z" id="Shape"></path>
                <path d="M130.169434,134.503906 C122.695475,134.503906 116.263997,132.96582 110.875,129.889648 C105.486003,126.813477 101.344564,122.427083 98.4506836,116.730469 C95.5568034,111.033854 94.1098633,104.289062 94.1098633,96.4960938 L94.1098633,96.4277344 C94.1098633,88.6575521 95.5568034,81.9127604 98.4506836,76.1933594 C101.344564,70.4739583 105.429036,66.0476888 110.704102,62.9145508 C115.979167,59.7814128 122.194173,58.2148438 129.349121,58.2148438 C136.504069,58.2148438 142.690592,59.7358398 147.908691,62.777832 C153.12679,65.8198242 157.154297,70.0979818 159.991211,75.6123047 C162.828125,81.1266276 164.246582,87.5751953 164.246582,94.9580078 L164.246582,101.110352 L103.919434,101.110352 L103.919434,88.5322266 L154.812988,88.5322266 L145.345215,100.290039 L145.345215,92.5996094 C145.345215,88.3157552 144.684408,84.726888 143.362793,81.8330078 C142.041178,78.9391276 140.206868,76.7630208 137.859863,75.3046875 C135.512858,73.8463542 132.789876,73.1171875 129.690918,73.1171875 C126.59196,73.1171875 123.846191,73.8691406 121.453613,75.3730469 C119.061035,76.8769531 117.186849,79.081543 115.831055,81.9868164 C114.47526,84.8920898 113.797363,88.4296875 113.797363,92.5996094 L113.797363,100.358398 C113.797363,104.391602 114.47526,107.84375 115.831055,110.714844 C117.186849,113.585938 119.118001,115.784831 121.624512,117.311523 C124.131022,118.838216 127.116048,119.601562 130.57959,119.601562 C133.313965,119.601562 135.683757,119.174316 137.688965,118.319824 C139.694173,117.465332 141.329102,116.377279 142.59375,115.055664 C143.858398,113.734049 144.718587,112.378255 145.174316,110.988281 L145.311035,110.578125 L163.631348,110.578125 L163.460449,111.364258 C162.890788,114.05306 161.814128,116.758952 160.230469,119.481934 C158.64681,122.204915 156.499186,124.705729 153.787598,126.984375 C151.076009,129.263021 147.766276,131.085938 143.858398,132.453125 C139.950521,133.820312 135.387533,134.503906 130.169434,134.503906 Z" id="Path"></path>
                <path d="M180.500488,133 L180.500488,59.71875 L200.461426,59.71875 L200.461426,72.5019531 L200.871582,72.5019531 C201.942546,67.9902344 203.919271,64.4811198 206.801758,61.9746094 C209.684245,59.468099 213.256022,58.2148438 217.51709,58.2148438 C218.633626,58.2148438 219.6875,58.2888997 220.678711,58.4370117 C221.669922,58.5851237 222.541504,58.773112 223.293457,59.0009766 L223.293457,76.5693359 C222.473145,76.2275391 221.424967,75.9541016 220.148926,75.7490234 C218.872884,75.5439453 217.505697,75.4414062 216.047363,75.4414062 C212.766113,75.4414062 209.957682,76.0794271 207.62207,77.3554688 C205.286458,78.6315104 203.509115,80.5 202.290039,82.9609375 C201.070964,85.421875 200.461426,88.4296875 200.461426,91.984375 L200.461426,133 L180.500488,133 Z" id="Path"></path>
                <path d="M268.497559,134.503906 C261.069173,134.503906 254.649089,132.960124 249.237305,129.872559 C243.825521,126.784993 239.655599,122.38151 236.727539,116.662109 C233.799479,110.942708 232.335449,104.152344 232.335449,96.2910156 L232.335449,96.2226562 C232.335449,88.406901 233.810872,81.6564128 236.761719,75.9711914 C239.712565,70.2859701 243.882487,65.9052734 249.271484,62.8291016 C254.660482,59.7529297 261.012207,58.2148438 268.32666,58.2148438 C274.95752,58.2148438 280.716797,59.4567057 285.604492,61.9404297 C290.492188,64.4241536 294.314616,67.7851562 297.071777,72.0234375 C299.828939,76.2617188 301.332845,81.0240885 301.583496,86.3105469 L301.617676,86.7890625 L283.058105,86.7890625 L282.955566,86.1738281 C282.363118,82.6875 280.853516,79.7651367 278.426758,77.4067383 C276,75.0483398 272.724447,73.8691406 268.600098,73.8691406 C265.341634,73.8691406 262.516113,74.7692057 260.123535,76.5693359 C257.730957,78.3694661 255.885254,80.9443359 254.586426,84.2939453 C253.287598,87.6435547 252.638184,91.6539714 252.638184,96.3251953 L252.638184,96.3935547 C252.638184,101.155924 253.287598,105.211914 254.586426,108.561523 C255.885254,111.911133 257.736654,114.463216 260.140625,116.217773 C262.544596,117.972331 265.387207,118.849609 268.668457,118.849609 C272.678874,118.849609 275.903158,117.727376 278.341309,115.48291 C280.77946,113.238444 282.328939,110.259115 282.989746,106.544922 L283.092285,105.929688 L301.686035,105.929688 L301.651855,106.374023 C301.332845,111.706055 299.783366,116.491211 297.003418,120.729492 C294.22347,124.967773 290.412435,128.323079 285.570312,130.79541 C280.72819,133.267741 275.037272,134.503906 268.497559,134.503906 Z" id="Path"></path>
                <path d="M317.666504,133 L317.666504,59.71875 L337.627441,59.71875 L337.627441,133 L317.666504,133 Z M327.646973,50.3193359 C324.661947,50.3193359 322.138346,49.2939453 320.076172,47.2431641 C318.013997,45.1923828 316.98291,42.7542318 316.98291,39.9287109 C316.98291,37.0576172 318.013997,34.6080729 320.076172,32.5800781 C322.138346,30.5520833 324.661947,29.5380859 327.646973,29.5380859 C330.654785,29.5380859 333.184082,30.5520833 335.234863,32.5800781 C337.285645,34.6080729 338.311035,37.0576172 338.311035,39.9287109 C338.311035,42.7542318 337.285645,45.1923828 335.234863,47.2431641 C333.184082,49.2939453 330.654785,50.3193359 327.646973,50.3193359 Z" id="Shape"></path>
                <path d="M362.289551,133 L362.289551,74.7578125 L352.343262,74.7578125 L352.343262,59.71875 L362.289551,59.71875 L362.289551,53.8740234 C362.289551,49.0888672 363.104167,45.1411133 364.733398,42.0307617 C366.36263,38.9204102 368.943197,36.6132812 372.475098,35.109375 C376.006999,33.6054688 380.655436,32.8535156 386.42041,32.8535156 C388.266113,32.8535156 390.12321,32.9332682 391.991699,33.0927734 C393.860189,33.2522786 395.364095,33.4459635 396.503418,33.6738281 L396.503418,46.8671875 C395.819824,46.7532552 395.022298,46.667806 394.11084,46.6108398 C393.199382,46.5538737 392.287923,46.5253906 391.376465,46.5253906 C388.072428,46.5253906 385.645671,47.214681 384.096191,48.5932617 C382.546712,49.9718424 381.771973,51.9713542 381.771973,54.5917969 L381.771973,59.71875 L396.33252,59.71875 L396.33252,74.7578125 L382.250488,74.7578125 L382.250488,133 L362.289551,133 Z" id="Path"></path>
                <path d="M424.241699,157.130859 C422.30485,157.130859 420.424967,157.039714 418.602051,156.857422 C416.779134,156.67513 415.275228,156.481445 414.090332,156.276367 L414.090332,141.442383 C414.796712,141.579102 415.719564,141.721517 416.858887,141.869629 C417.99821,142.017741 419.308431,142.091797 420.789551,142.091797 C423.774577,142.091797 426.138672,141.596191 427.881836,140.60498 C429.625,139.61377 430.929525,137.887695 431.79541,135.426758 L432.649902,133.03418 L406.775879,59.71875 L428.685059,59.71875 L445.228027,121.00293 L442.596191,117.003906 L446.321777,117.003906 L443.655762,121.00293 L460.19873,59.71875 L481.253418,59.71875 L456.131348,134.333008 C454.217285,140.075195 451.813314,144.609701 448.919434,147.936523 C446.025553,151.263346 442.550618,153.627441 438.494629,155.028809 C434.438639,156.430176 429.687663,157.130859 424.241699,157.130859 Z" id="Path"></path>
            </g>
        </g>
    </g>
</svg>